<svg width="24" height="24" viewBox="0 0 24 24" fill="none" xmlns="http://www.w3.org/2000/svg">
<circle cx="12" cy="12" r="12" fill="white"/>
<path d="M6 11.9944C6 11.8589 6.0452 11.7404 6.14124 11.6444C6.23729 11.5541 6.35593 11.5089 6.48023 11.5089H7.63277C7.76271 11.5089 7.87006 11.5541 7.96045 11.65C8.0452 11.746 8.0904 11.8589 8.0904 11.9944C8.0904 12.1298 8.05085 12.2427 7.9661 12.3387C7.88136 12.4346 7.76836 12.4798 7.63842 12.4798H6.48588C6.35593 12.4798 6.24294 12.4346 6.14689 12.3387C6.05085 12.2427 6 12.1298 6 11.9944ZM7.61582 15.9059C7.61582 15.7761 7.66102 15.6632 7.74576 15.5616L8.57627 14.7545C8.66102 14.6642 8.77401 14.6246 8.9096 14.6246C9.0452 14.6246 9.15819 14.6698 9.24859 14.7545C9.33898 14.8391 9.38418 14.9464 9.38418 15.0762C9.38418 15.2117 9.33898 15.3358 9.24859 15.4374L8.44633 16.2389C8.21469 16.4196 7.98305 16.4196 7.75141 16.2389C7.66102 16.1486 7.61582 16.0357 7.61582 15.9059ZM7.61582 8.09407C7.61582 7.96425 7.66102 7.85136 7.74576 7.74976C7.85876 7.65381 7.9774 7.60865 8.10734 7.60865C8.23164 7.60865 8.34463 7.65381 8.44068 7.74412L9.24859 8.57385C9.33898 8.65851 9.38418 8.7714 9.38418 8.90687C9.38418 9.04233 9.33898 9.15522 9.24859 9.24553C9.15819 9.33584 9.0452 9.381 8.9096 9.381C8.77401 9.381 8.66102 9.33584 8.57627 9.24553L7.75141 8.43838C7.66102 8.34807 7.61582 8.22954 7.61582 8.09407ZM9.0565 11.9944C9.0565 11.4694 9.18644 10.9784 9.45198 10.5268C9.71751 10.0753 10.0734 9.71402 10.5311 9.44873C10.9887 9.18344 11.4746 9.05362 12 9.05362C12.3955 9.05362 12.774 9.13264 13.1412 9.29069C13.5028 9.44873 13.8192 9.65757 14.0791 9.92286C14.3446 10.1881 14.5537 10.4986 14.7062 10.8598C14.8588 11.2211 14.9379 11.6049 14.9379 12C14.9379 12.5306 14.8079 13.0216 14.5424 13.4732C14.2768 13.9247 13.9209 14.2803 13.4689 14.5456C13.0169 14.8109 12.5254 14.9407 11.9943 14.9407C11.4633 14.9407 10.9718 14.8109 10.5198 14.5456C10.0678 14.2803 9.71186 13.9247 9.44633 13.4732C9.19209 13.016 9.0565 12.5249 9.0565 11.9944ZM11.5198 16.3857C11.5198 16.2502 11.565 16.1373 11.661 16.047C11.7571 15.9567 11.8701 15.9116 12 15.9116C12.1356 15.9116 12.2542 15.9567 12.3446 16.047C12.435 16.1373 12.4802 16.2502 12.4802 16.3857V17.5089C12.4802 17.6444 12.435 17.7629 12.339 17.8589C12.2429 17.9548 12.1299 18 12 18C11.8701 18 11.7514 17.9548 11.661 17.8589C11.565 17.7629 11.5198 17.6444 11.5198 17.5089V16.3857ZM11.5198 7.63688V6.48542C11.5198 6.3556 11.565 6.24271 11.661 6.14675C11.7571 6.0508 11.8701 6 12.0056 6C12.1412 6 12.2486 6.04516 12.3446 6.14111C12.4407 6.23706 12.4859 6.34995 12.4859 6.47977V7.63688C12.4859 7.7667 12.4407 7.87394 12.3446 7.96425C12.2486 8.05456 12.1356 8.09407 12.0056 8.09407C11.8757 8.09407 11.7571 8.04892 11.6667 7.96425C11.5763 7.87959 11.5198 7.7667 11.5198 7.63688ZM14.6384 15.0762C14.6384 14.9464 14.6836 14.8391 14.7684 14.7601C14.8531 14.6698 14.9605 14.6303 15.0847 14.6303C15.2203 14.6303 15.3333 14.6754 15.4237 14.7601L16.2486 15.5673C16.339 15.6632 16.3842 15.7817 16.3842 15.9116C16.3842 16.0414 16.339 16.1543 16.2486 16.2446C16.0226 16.4196 15.7966 16.4196 15.5706 16.2446L14.7684 15.4431C14.6836 15.3415 14.6384 15.223 14.6384 15.0762ZM14.6384 8.91251C14.6384 8.7714 14.6836 8.65851 14.7684 8.57949L15.5706 7.74976C15.6667 7.65945 15.7797 7.6143 15.904 7.6143C16.0395 7.6143 16.1525 7.65945 16.2429 7.75541C16.339 7.85136 16.3842 7.96425 16.3842 8.09407C16.3842 8.23518 16.339 8.35372 16.2486 8.44403L15.4237 9.25118C15.322 9.34149 15.209 9.38664 15.0847 9.38664C14.9548 9.38664 14.8531 9.34149 14.7684 9.25118C14.6836 9.16087 14.6384 9.04798 14.6384 8.91251ZM15.9153 11.9944C15.9153 11.8589 15.9605 11.746 16.0508 11.6444C16.1412 11.5541 16.2486 11.5089 16.3729 11.5089H17.5141C17.6441 11.5089 17.7571 11.5597 17.8531 11.6557C17.9492 11.7516 18 11.8645 18 11.9944C18 12.1242 17.9492 12.2371 17.8531 12.333C17.7571 12.429 17.6441 12.4741 17.5141 12.4741H16.3729C16.2429 12.4741 16.1299 12.429 16.0452 12.333C15.9605 12.2371 15.9153 12.1298 15.9153 11.9944Z" fill="#FFBB11"/>
</svg>
