<svg width="77" height="43" viewBox="0 0 77 43" fill="none" xmlns="http://www.w3.org/2000/svg">
<path d="M0.964229 37.1402V41.4347H0.618446V37.1402H0.964229ZM3.42691 37.4496V41.4347H3.08113V37.4496H1.63754V37.1402H4.87058V37.4496H3.42691ZM5.52562 41.1921C5.52562 41.2689 5.49936 41.3347 5.44683 41.3892C5.39424 41.4438 5.32956 41.4711 5.25266 41.4711C5.17584 41.4711 5.11116 41.4438 5.05856 41.3892C5.00604 41.3347 4.9797 41.2689 4.9797 41.1921C4.9797 41.1193 5.00604 41.0556 5.05856 41.001C5.11116 40.9465 5.17584 40.9191 5.25266 40.9191C5.32956 40.9191 5.39424 40.9465 5.44683 41.001C5.49936 41.0556 5.52562 41.1193 5.52562 41.1921ZM8.2916 39.3542V41.1254H10.6452V41.4347H7.95193V37.1402H10.5663V37.4496H8.2916V39.0509H10.4207V39.3542H8.2916ZM13.866 40.8767C13.7488 41.0789 13.588 41.2356 13.3838 41.3468C13.1796 41.458 12.9642 41.5136 12.7378 41.5136C12.3132 41.5136 11.9665 41.372 11.6975 41.089C11.4286 40.8059 11.2942 40.4501 11.2942 40.0214C11.2942 39.5968 11.4286 39.2429 11.6975 38.9599C11.9665 38.6769 12.3132 38.5353 12.7378 38.5353C12.9642 38.5353 13.1796 38.5919 13.3838 38.7052C13.588 38.8184 13.7488 38.9781 13.866 39.1844H13.8781V36.849H14.2118V41.4347H13.8781V40.8767H13.866ZM11.9462 39.157C11.742 39.3896 11.6399 39.6777 11.6399 40.0214C11.6399 40.3651 11.742 40.6523 11.9462 40.8827C12.1504 41.1132 12.4244 41.2285 12.7682 41.2285C13.0998 41.2285 13.3737 41.1132 13.59 40.8827C13.8064 40.6523 13.9146 40.3651 13.9146 40.0214C13.9146 39.6777 13.8064 39.3896 13.59 39.157C13.3737 38.9245 13.0998 38.8082 12.7682 38.8082C12.4244 38.8082 12.1504 38.9245 11.9462 39.157ZM16.5714 38.6081V38.8871H15.7646V40.6765C15.7646 40.8666 15.803 41.001 15.8799 41.0799C15.9567 41.1587 16.0679 41.1982 16.2135 41.1982C16.3308 41.1982 16.446 41.1718 16.5592 41.1193L16.5774 41.4044C16.4318 41.457 16.2822 41.4833 16.1285 41.4833C15.9304 41.4833 15.7656 41.4256 15.6342 41.3104C15.5028 41.1951 15.437 41.0101 15.437 40.7553V38.8871H14.8427V38.6081H15.431V37.8014H15.7646V38.6081H16.5714ZM17.3842 39.8273H19.4465C19.4344 39.524 19.3384 39.2784 19.1584 39.0903C18.9785 38.9022 18.7369 38.8082 18.4336 38.8082C18.1343 38.8082 17.8876 38.9144 17.6935 39.1267C17.4994 39.339 17.3963 39.5726 17.3842 39.8273ZM18.4699 41.5136C18.0574 41.5136 17.7158 41.372 17.4448 41.089C17.1739 40.8059 17.0384 40.448 17.0384 40.0153C17.0384 39.5908 17.1729 39.2379 17.4418 38.9569C17.7107 38.6758 18.0433 38.5353 18.4396 38.5353C18.8642 38.5353 19.1928 38.6678 19.4253 38.9327C19.6578 39.1975 19.7741 39.526 19.7741 39.9183V40.0882H17.3781C17.3862 40.3995 17.4914 40.6674 17.6935 40.8918C17.8957 41.1163 18.1586 41.2285 18.4821 41.2285C18.8581 41.2285 19.1816 41.0688 19.4526 40.7493L19.671 40.9252C19.3677 41.3175 18.9673 41.5136 18.4699 41.5136ZM22.9525 38.9781L22.7341 39.1783C22.6492 39.0691 22.536 38.9821 22.3945 38.9174C22.253 38.8528 22.1054 38.8204 21.9517 38.8204C21.616 38.8204 21.3441 38.9346 21.1358 39.1631C20.9276 39.3916 20.8234 39.6777 20.8234 40.0214C20.8234 40.3651 20.9266 40.6502 21.1328 40.8767C21.339 41.1031 21.608 41.2164 21.9396 41.2164C22.2711 41.2164 22.5461 41.1031 22.7645 40.8767L22.9707 41.0648C22.7119 41.364 22.3682 41.5136 21.9396 41.5136C21.5028 41.5136 21.151 41.3741 20.8841 41.095C20.6172 40.816 20.4837 40.4582 20.4837 40.0214C20.4837 39.5887 20.6202 39.2329 20.8932 38.9538C21.1661 38.6748 21.5169 38.5353 21.9456 38.5353C22.3823 38.5353 22.718 38.6829 22.9525 38.9781ZM24.0262 39.1601H24.0383C24.1313 38.9579 24.2668 38.8032 24.4447 38.6961C24.6226 38.5889 24.8187 38.5353 25.0331 38.5353C25.3889 38.5353 25.6548 38.6435 25.8307 38.8598C26.0066 39.0762 26.0946 39.3602 26.0946 39.712V41.4347H25.767V39.8334C25.767 39.154 25.4981 38.8144 24.9603 38.8144C24.7015 38.8144 24.4811 38.9174 24.2991 39.1237C24.1171 39.3299 24.0262 39.6211 24.0262 39.9971V41.4347H23.6986V36.849H24.0262V39.1601ZM27.6778 41.1921C27.6778 41.2689 27.6514 41.3347 27.5989 41.3892C27.5463 41.4438 27.4816 41.4711 27.4048 41.4711C27.328 41.4711 27.2632 41.4438 27.2107 41.3892C27.1581 41.3347 27.1318 41.2689 27.1318 41.1921C27.1318 41.1193 27.1581 41.0556 27.2107 41.001C27.2632 40.9465 27.328 40.9191 27.4048 40.9191C27.4816 40.9191 27.5463 40.9465 27.5989 41.001C27.6514 41.0556 27.6778 41.1193 27.6778 41.1921ZM30.1041 41.4347V37.1402H31.4628C31.758 37.1402 32.04 37.1847 32.3089 37.2736C32.5779 37.3626 32.8215 37.493 33.0398 37.6649C33.2582 37.8367 33.4321 38.0632 33.5615 38.3442C33.6909 38.6253 33.7556 38.9397 33.7556 39.2875C33.7556 39.6352 33.6909 39.9496 33.5615 40.2307C33.4321 40.5117 33.2582 40.7382 33.0398 40.91C32.8215 41.0819 32.5779 41.2123 32.3089 41.3013C32.04 41.3902 31.758 41.4347 31.4628 41.4347H30.1041ZM30.4498 37.4496V41.1254H31.3717C31.9986 41.1254 32.4919 40.9535 32.8518 40.6098C33.2117 40.2661 33.3917 39.8253 33.3917 39.2875C33.3917 38.7496 33.2117 38.3088 32.8518 37.9651C32.4919 37.6214 31.9986 37.4496 31.3717 37.4496H30.4498ZM34.8232 39.8273H36.8855C36.8734 39.524 36.7773 39.2784 36.5974 39.0903C36.4174 38.9022 36.1758 38.8082 35.8725 38.8082C35.5733 38.8082 35.3266 38.9144 35.1325 39.1267C34.9384 39.339 34.8353 39.5726 34.8232 39.8273ZM35.9089 41.5136C35.4965 41.5136 35.1548 41.372 34.8839 41.089C34.6129 40.8059 34.4775 40.448 34.4775 40.0153C34.4775 39.5908 34.6119 39.2379 34.8808 38.9569C35.1497 38.6758 35.4823 38.5353 35.8786 38.5353C36.3032 38.5353 36.6318 38.6678 36.8643 38.9327C37.0969 39.1975 37.2131 39.526 37.2131 39.9183V40.0882H34.8171C34.8252 40.3995 34.9303 40.6674 35.1325 40.8918C35.3347 41.1163 35.5975 41.2285 35.9211 41.2285C36.2972 41.2285 36.6206 41.0688 36.8916 40.7493L37.11 40.9252C36.8067 41.3175 36.4063 41.5136 35.9089 41.5136ZM39.8638 39.0145L39.6091 39.1964C39.4554 38.9377 39.2188 38.8082 38.8993 38.8082C38.7295 38.8082 38.5809 38.8497 38.4535 38.9327C38.3261 39.0155 38.2625 39.1378 38.2625 39.2996C38.2625 39.4533 38.317 39.5675 38.4262 39.6423C38.5354 39.7171 38.7174 39.7828 38.9721 39.8394C39.2876 39.9082 39.5241 40.0052 39.6818 40.1306C39.8396 40.256 39.9184 40.4299 39.9184 40.6523C39.9184 40.9353 39.8183 41.1486 39.6182 41.2922C39.418 41.4357 39.1764 41.5075 38.8933 41.5075C38.4161 41.5075 38.0583 41.3316 37.8196 40.9798L38.0805 40.7918C38.1654 40.9211 38.2796 41.0263 38.4232 41.1072C38.5668 41.1881 38.7234 41.2285 38.8933 41.2285C39.0874 41.2285 39.2522 41.183 39.3876 41.092C39.5231 41.001 39.5908 40.8625 39.5908 40.6765C39.5908 40.535 39.5342 40.4237 39.421 40.3429C39.3077 40.262 39.1713 40.2024 39.0116 40.164C38.8518 40.1255 38.6911 40.0831 38.5294 40.0366C38.3676 39.9901 38.2301 39.9082 38.1169 39.7909C38.0036 39.6736 37.947 39.5179 37.947 39.3238C37.947 39.0651 38.0411 38.8689 38.2291 38.7355C38.4171 38.602 38.6446 38.5353 38.9115 38.5353C39.1218 38.5353 39.3108 38.5768 39.4786 38.6596C39.6465 38.7426 39.7748 38.8608 39.8638 39.0145ZM41.1073 38.6081V41.4347H40.7737V38.6081H41.1073ZM41.1103 37.31C41.1609 37.3585 41.1862 37.4172 41.1862 37.4859C41.1862 37.5547 41.1609 37.6133 41.1103 37.6618C41.0598 37.7104 41.0022 37.7346 40.9374 37.7346C40.8728 37.7346 40.8162 37.7104 40.7676 37.6618C40.7191 37.6133 40.6948 37.5547 40.6948 37.4859C40.6948 37.4172 40.7191 37.3585 40.7676 37.31C40.8162 37.2615 40.8728 37.2373 40.9374 37.2373C41.0022 37.2373 41.0598 37.2615 41.1103 37.31ZM42.1263 42.3506L42.3386 42.1262C42.646 42.4538 43.022 42.6175 43.4668 42.6175C43.8672 42.6175 44.1583 42.5013 44.3404 42.2688C44.5223 42.0363 44.6133 41.736 44.6133 41.368V40.816H44.6012C44.496 41.0182 44.3393 41.1759 44.131 41.2891C43.9228 41.4024 43.7034 41.459 43.4729 41.459C43.0443 41.459 42.6965 41.3225 42.4296 41.0495C42.1627 40.7766 42.0293 40.4299 42.0293 40.0093C42.0293 39.5928 42.1637 39.2429 42.4326 38.9599C42.7016 38.6769 43.0483 38.5353 43.4729 38.5353C43.7034 38.5353 43.9208 38.5919 44.125 38.7052C44.3292 38.8184 44.488 38.9781 44.6012 39.1844H44.6133V38.6081H44.9469V41.368C44.9469 41.5621 44.9237 41.7431 44.8771 41.9109C44.8306 42.0787 44.7548 42.2415 44.6497 42.3992C44.5446 42.5569 44.3899 42.6812 44.1857 42.7722C43.9815 42.8632 43.7378 42.9087 43.4548 42.9087C42.9169 42.9087 42.4741 42.7227 42.1263 42.3506ZM42.6813 39.154C42.4771 39.3845 42.375 39.6655 42.375 39.9971C42.375 40.3287 42.4771 40.6088 42.6813 40.8373C42.8856 41.0657 43.1595 41.18 43.5033 41.18C43.8349 41.18 44.1088 41.0677 44.3251 40.8433C44.5415 40.6189 44.6497 40.3368 44.6497 39.9971C44.6497 39.6736 44.5405 39.3946 44.3222 39.1601C44.1038 38.9255 43.8308 38.8082 43.5033 38.8082C43.1595 38.8082 42.8856 38.9235 42.6813 39.154ZM46.0448 38.6081H46.3602C46.3764 38.8184 46.3845 39.0064 46.3845 39.1722H46.3966C46.4775 38.9821 46.6129 38.8285 46.803 38.7112C46.9931 38.5939 47.1953 38.5353 47.4096 38.5353C47.7614 38.5353 48.0252 38.6425 48.2011 38.8568C48.3771 39.0711 48.465 39.3562 48.465 39.712V41.4347H48.1375V39.8334C48.1375 39.154 47.8706 38.8144 47.3368 38.8144C47.074 38.8144 46.8526 38.9174 46.6726 39.1237C46.4927 39.3299 46.4027 39.6211 46.4027 39.9971V41.4347H46.0691V39.2571C46.0691 38.9903 46.061 38.7739 46.0448 38.6081ZM50.0482 41.1921C50.0482 41.2689 50.0219 41.3347 49.9694 41.3892C49.9168 41.4438 49.8521 41.4711 49.7753 41.4711C49.6984 41.4711 49.6337 41.4438 49.5811 41.3892C49.5286 41.3347 49.5022 41.2689 49.5022 41.1921C49.5022 41.1193 49.5286 41.0556 49.5811 41.001C49.6337 40.9465 49.6984 40.9191 49.7753 40.9191C49.8521 40.9191 49.9168 40.9465 49.9694 41.001C50.0219 41.0556 50.0482 41.1193 50.0482 41.1921Z" fill="#434242"/>
<path fill-rule="evenodd" clip-rule="evenodd" d="M69.7045 11.0035H73.2811C75.3293 11.0035 76.9937 9.31194 76.9937 7.24604L77 0H69.7045C67.6626 0 65.9979 1.68505 65.9979 3.7572V11.0035H69.7045ZM70.4285 7.85787H72.5756C72.6808 7.85787 72.7922 7.84514 72.8914 7.814C73.1201 7.75798 73.3182 7.6394 73.479 7.47695C73.5039 7.44581 73.5348 7.41467 73.5595 7.38332C73.7451 7.15888 73.8503 6.87159 73.8503 6.55949L73.8565 3.14559H70.4285C69.7168 3.14559 69.1414 3.726 69.1414 4.44994V6.55949L69.1351 7.85787C69.1351 7.85787 69.9829 7.85787 70.4285 7.85787ZM67.6439 3.7572C67.6439 2.59632 68.5722 1.64765 69.7045 1.64765H75.3477V7.24604C75.3477 8.40692 74.4197 9.34933 73.2811 9.34933H67.6439V3.7572Z" fill="#A1902C"/>
<path fill-rule="evenodd" clip-rule="evenodd" d="M3.2043 12.2505C3.2043 12.6987 3.05072 13.0746 2.74386 13.3843C2.41757 13.6941 2.05295 13.8457 1.61172 13.8457C1.17049 13.8457 0.786725 13.6941 0.479572 13.3776C0.172491 13.0615 0 12.6923 0 12.2505C0 11.8088 0.153285 11.4332 0.479572 11.1232C0.786725 10.8068 1.15106 10.6486 1.61172 10.6486C2.05295 10.6486 2.41757 10.8068 2.74386 11.1232C3.05072 11.4332 3.2043 11.8088 3.2043 12.2505ZM2.60949 32.0464H0.61394V16.878H2.60949V32.0464ZM23.5818 11.5319L14.6595 32.0464H14.218L5.41083 11.5319H7.63678L14.4291 27.3923L21.356 11.5319H23.5818ZM47.7203 21.7825C47.7203 24.8018 46.6842 27.3592 44.6118 29.436C42.5394 31.5189 39.9874 32.5605 36.9559 32.5605C33.9432 32.5605 31.3913 31.5321 29.2808 29.4819C27.1892 27.4254 26.1337 24.894 26.1337 21.8814C26.1337 19.9302 26.5944 18.1108 27.5347 16.4298C28.4747 14.7488 29.7795 13.4171 31.4682 12.4417C33.099 11.4991 34.8835 11.0178 36.8023 11.0178C39.8916 11.0178 42.4627 12.0395 44.5543 14.0699C46.665 16.1397 47.7203 18.7042 47.7203 21.7825ZM45.6096 21.7891C45.6096 18.414 44.1706 15.8894 41.2923 14.2348C39.9108 13.4438 38.4526 13.048 36.8984 13.048C35.3633 13.048 33.9241 13.4438 32.5617 14.2348C31.1993 15.0191 30.1441 16.0805 29.3958 17.4187C28.6283 18.7568 28.2444 20.2466 28.2444 21.8881C28.2444 24.3073 29.0695 26.3639 30.739 28.0449C32.389 29.7258 34.4422 30.5631 36.879 30.5631C38.4718 30.5631 39.9491 30.1807 41.2923 29.4161C42.6547 28.6579 43.7099 27.6034 44.4774 26.2652C45.2257 24.9136 45.6096 23.4239 45.6096 21.7891ZM65.8145 32.0464H63.4159L58.0817 23.4437L52.7284 32.0464H50.3297L56.8729 21.4794L50.7904 11.5319H53.1888L58.0817 19.5412L63.0515 11.5319H65.4116L59.3097 21.4794L65.8145 32.0464Z" fill="#A1902C"/>
<path d="M71.0701 16.5647V18.0521H70.8861H70.8199H70.3869V14.9454H70.8199H70.8861H71.7151C72.4055 14.9454 72.7507 15.216 72.7507 15.7572C72.7507 15.9912 72.6717 16.177 72.5138 16.3145C72.3558 16.452 72.1599 16.5295 71.9258 16.547L72.8428 18.0521H72.5401L71.6537 16.5647H71.0701ZM71.0701 15.1604V16.3495H71.68C71.9433 16.3495 72.1459 16.2992 72.2878 16.1981C72.4297 16.0973 72.5006 15.9503 72.5006 15.7572C72.5006 15.3593 72.2256 15.1604 71.6756 15.1604H71.0701Z" fill="#A1902C"/>
<path fill-rule="evenodd" clip-rule="evenodd" d="M71.4999 13.5887C73.1071 13.5887 74.41 14.8916 74.41 16.4988C74.41 18.106 73.1071 19.4088 71.4999 19.4088C69.8928 19.4088 68.5899 18.106 68.5899 16.4988C68.5899 14.8916 69.8928 13.5887 71.4999 13.5887ZM71.4999 14.0521C72.8513 14.0521 73.9467 15.1475 73.9467 16.4988C73.9467 17.8501 72.8513 18.9455 71.4999 18.9455C70.1487 18.9455 69.0532 17.8501 69.0532 16.4988C69.0532 15.1475 70.1487 14.0521 71.4999 14.0521Z" fill="#A1902C"/>
</svg>
